<?xml version="1.0" encoding="utf-8"?><svg fill="none" viewBox="0 0 400 400" xmlns="http://www.w3.org/2000/svg"><defs /><g transform="matrix(1.05,0,0,1.05,20.975,9.425)" id="lottie_radio Outlines"><g opacity="1"><animate repeatCount="indefinite" attributeName="opacity" dur="4.966666666666667s" begin="1.3122666666666667s" calcMode="spline" values="1; 0; 1; 0; 1; 0" keyTimes="0; 0.121; 0.309; 0.537; 0.765; 1" keySplines="0.333 0 0.667 1; 0.333 0 0.667 1; 0.333 0 0.667 1; 0.333 0 0.667 1; 0.333 0 0.667 1" fill="freeze" /><g id="Group 17" transform="translate(2.75,90.75)"><path fill="#B5924C" fill-opacity="1" d="M0,-2.5C1.381,-2.5,2.5,-1.381,2.5,0C2.5,1.381,1.381,2.5,0,2.5C-1.381,2.5,-2.5,1.381,-2.5,0C-2.5,-1.381,-1.381,-2.5,0,-2.5Z" /></g></g><g opacity="1"><animate repeatCount="indefinite" attributeName="opacity" dur="6s" begin="0.2456s" calcMode="spline" values="1; 0; 1; 0; 1; 0" keyTimes="0; 0.1; 0.256; 0.444; 0.628; 1" keySplines="0.333 0 0.667 1; 0.333 0 0.667 1; 0.333 0 0.667 1; 0.333 0 0.667 1; 0.333 0 0.667 1" fill="freeze" /><g id="Group 16" transform="translate(13.75,162.75)"><path fill="#B5924C" fill-opacity="1" d="M0,-2.5C1.381,-2.5,2.5,-1.381,2.5,0C2.5,1.381,1.381,2.5,0,2.5C-1.381,2.5,-2.5,1.381,-2.5,0C-2.5,-1.381,-1.381,-2.5,0,-2.5Z" /></g></g><g opacity="1"><animate repeatCount="indefinite" attributeName="opacity" dur="4.966666666666667s" begin="0.045599999999999995s" calcMode="spline" values="1; 0; 1; 0; 1; 0" keyTimes="0; 0.121; 0.309; 0.537; 0.758; 1" keySplines="0.333 0 0.667 1; 0.333 0 0.667 1; 0.333 0 0.667 1; 0.333 0 0.667 1; 0.333 0 0.667 1" fill="freeze" /><g id="Group 15" transform="translate(2.75,223.75)"><path fill="#B5924C" fill-opacity="1" d="M0,-2.5C1.381,-2.5,2.5,-1.381,2.5,0C2.5,1.381,1.381,2.5,0,2.5C-1.381,2.5,-2.5,1.381,-2.5,0C-2.5,-1.381,-1.381,-2.5,0,-2.5Z" /></g></g><g opacity="1"><animate repeatCount="indefinite" attributeName="opacity" dur="5.133333333333334s" begin="0.41226666666666667s" calcMode="spline" values="1; 0; 1; 0; 1; 0" keyTimes="0; 0.117; 0.299; 0.519; 0.812; 1" keySplines="0.333 0 0.667 1; 0.333 0 0.667 1; 0.333 0 0.667 1; 0.333 0 0.667 1; 0.333 0 0.667 1" fill="freeze" /><g id="Group 14" transform="translate(41.75,254.75)"><path fill="#B5924C" fill-opacity="1" d="M0,-2.5C1.381,-2.5,2.5,-1.381,2.5,0C2.5,1.381,1.381,2.5,0,2.5C-1.381,2.5,-2.5,1.381,-2.5,0C-2.5,-1.381,-1.381,-2.5,0,-2.5Z" /></g></g><g opacity="1"><animate repeatCount="indefinite" attributeName="opacity" dur="4.966666666666667s" begin="0.17893333333333333s" calcMode="spline" values="1; 0; 1; 0; 1; 0" keyTimes="0; 0.121; 0.309; 0.537; 0.758; 1" keySplines="0.333 0 0.667 1; 0.333 0 0.667 1; 0.333 0 0.667 1; 0.333 0 0.667 1; 0.333 0 0.667 1" fill="freeze" /><g id="Group 13" transform="translate(102.75,283.75)"><path fill="#B5924C" fill-opacity="1" d="M0,-2.5C1.381,-2.5,2.5,-1.381,2.5,0C2.5,1.381,1.381,2.5,0,2.5C-1.381,2.5,-2.5,1.381,-2.5,0C-2.5,-1.381,-1.381,-2.5,0,-2.5Z" /></g></g><g opacity="1"><animate repeatCount="indefinite" attributeName="opacity" dur="4.966666666666667s" begin="0.8122666666666666s" calcMode="spline" values="1; 0; 1; 0; 1; 0" keyTimes="0; 0.121; 0.309; 0.537; 0.758; 1" keySplines="0.333 0 0.667 1; 0.333 0 0.667 1; 0.333 0 0.667 1; 0.333 0 0.667 1; 0.333 0 0.667 1" fill="freeze" /><g id="Group 12" transform="translate(155.75,326.75)"><path fill="#B5924C" fill-opacity="1" d="M0,-2.5C1.381,-2.5,2.5,-1.381,2.5,0C2.5,1.381,1.381,2.5,0,2.5C-1.381,2.5,-2.5,1.381,-2.5,0C-2.5,-1.381,-1.381,-2.5,0,-2.5Z" /></g></g><g opacity="1"><animate repeatCount="indefinite" attributeName="opacity" dur="4.966666666666667s" begin="2.3789333333333333s" calcMode="spline" values="1; 0; 1; 0; 1; 0" keyTimes="0; 0.121; 0.403; 0.664; 0.758; 1" keySplines="0.333 0 0.667 1; 0.333 0 0.667 1; 0.333 0 0.667 1; 0.333 0 0.667 1; 0.333 0 0.667 1" fill="freeze" /><g id="Group 11" transform="translate(245.75,320.75)"><path fill="#B5924C" fill-opacity="1" d="M0,-2.5C1.381,-2.5,2.5,-1.381,2.5,0C2.5,1.381,1.381,2.5,0,2.5C-1.381,2.5,-2.5,1.381,-2.5,0C-2.5,-1.381,-1.381,-2.5,0,-2.5Z" /></g></g><g opacity="1"><animate repeatCount="indefinite" attributeName="opacity" dur="4.966666666666667s" begin="1.2456s" calcMode="spline" values="1; 0; 1; 0; 1; 0" keyTimes="0; 0.121; 0.309; 0.537; 0.758; 1" keySplines="0.333 0 0.667 1; 0.333 0 0.667 1; 0.333 0 0.667 1; 0.333 0 0.667 1; 0.333 0 0.667 1" fill="freeze" /><g id="Group 10" transform="translate(204.75,359.75)"><path fill="#B5924C" fill-opacity="1" d="M0,-2.5C1.381,-2.5,2.5,-1.381,2.5,0C2.5,1.381,1.381,2.5,0,2.5C-1.381,2.5,-2.5,1.381,-2.5,0C-2.5,-1.381,-1.381,-2.5,0,-2.5Z" /></g></g><g opacity="1"><animate repeatCount="indefinite" attributeName="opacity" dur="5.133333333333334s" begin="0.3122666666666667s" calcMode="spline" values="1; 0; 1; 0; 1; 0" keyTimes="0; 0.117; 0.299; 0.519; 0.734; 1" keySplines="0.333 0 0.667 1; 0.333 0 0.667 1; 0.333 0 0.667 1; 0.333 0 0.667 1; 0.333 0 0.667 1" fill="freeze" /><g id="Group 9" transform="translate(306.75,223.75)"><path fill="#B5924C" fill-opacity="1" d="M0,-2.5C1.381,-2.5,2.5,-1.381,2.5,0C2.5,1.381,1.381,2.5,0,2.5C-1.381,2.5,-2.5,1.381,-2.5,0C-2.5,-1.381,-1.381,-2.5,0,-2.5Z" /></g></g><g opacity="1"><animate repeatCount="indefinite" attributeName="opacity" dur="6.266666666666667s" begin="0.11226666666666667s" calcMode="spline" values="1; 0; 1; 1; 0; 0; 1; 1; 0; 0; 1; 0" keyTimes="0; 0.096; 0.207; 0.245; 0.303; 0.426; 0.452; 0.601; 0.633; 0.782; 0.809; 1" keySplines="0.333 0 0.667 1; 0.333 0 0.667 1; 0.333 0 0.667 1; 0.333 0 0.667 1; 0.333 0 0.667 1; 0.333 0 0.667 1; 0.333 0 0.667 1; 0.333 0 0.667 1; 0.333 0 0.667 1; 0.333 0 0.667 1; 0.333 0 0.667 1" fill="freeze" /><g id="Group 8" transform="translate(337.75,162.75)"><path fill="#B5924C" fill-opacity="1" d="M0,-2.5C1.381,-2.5,2.5,-1.381,2.5,0C2.5,1.381,1.381,2.5,0,2.5C-1.381,2.5,-2.5,1.381,-2.5,0C-2.5,-1.381,-1.381,-2.5,0,-2.5Z" /></g></g><g opacity="1"><animate repeatCount="indefinite" attributeName="opacity" dur="5s" begin="0.4789333333333333s" calcMode="spline" values="1; 0; 1; 0; 1; 0" keyTimes="0; 0.12; 0.307; 0.533; 0.833; 1" keySplines="0.333 0 0.667 1; 0.333 0 0.667 1; 0.333 0 0.667 1; 0.333 0 0.667 1; 0.333 0 0.667 1" fill="freeze" /><g id="Group 7" transform="translate(295.75,99.75)"><path fill="#B5924C" fill-opacity="1" d="M0,-2.5C1.381,-2.5,2.5,-1.381,2.5,0C2.5,1.381,1.381,2.5,0,2.5C-1.381,2.5,-2.5,1.381,-2.5,0C-2.5,-1.381,-1.381,-2.5,0,-2.5Z" /></g></g><g opacity="1"><animate repeatCount="indefinite" attributeName="opacity" dur="4.966666666666667s" begin="0.17893333333333333s" calcMode="spline" values="1; 0; 1; 0; 1; 0" keyTimes="0; 0.121; 0.309; 0.537; 0.758; 1" keySplines="0.333 0 0.667 1; 0.333 0 0.667 1; 0.333 0 0.667 1; 0.333 0 0.667 1; 0.333 0 0.667 1" fill="freeze" /><g id="Group 6" transform="translate(282.75,42.75)"><path fill="#B5924C" fill-opacity="1" d="M0,-2.5C1.381,-2.5,2.5,-1.381,2.5,0C2.5,1.381,1.381,2.5,0,2.5C-1.381,2.5,-2.5,1.381,-2.5,0C-2.5,-1.381,-1.381,-2.5,0,-2.5Z" /></g></g><g opacity="1"><animate repeatCount="indefinite" attributeName="opacity" dur="4.966666666666667s" begin="0.07893333333333333s" calcMode="spline" values="1; 0; 1; 0; 1; 0.85" keyTimes="0; 0.121; 0.309; 0.537; 0.758; 1" keySplines="0.333 0 0.667 1; 0.333 0 0.667 1; 0.333 0 0.667 1; 0.333 0 0.667 1; 0.333 0 0.667 1" fill="freeze" /><g id="Group 5" transform="translate(165.75,33.75)"><path fill="#B5924C" fill-opacity="1" d="M0,-2.5C1.381,-2.5,2.5,-1.381,2.5,0C2.5,1.381,1.381,2.5,0,2.5C-1.381,2.5,-2.5,1.381,-2.5,0C-2.5,-1.381,-1.381,-2.5,0,-2.5Z" /></g></g><g opacity="1"><animate repeatCount="indefinite" attributeName="opacity" dur="4.1s" begin="1.0122666666666666s" calcMode="spline" values="1; 0; 1; 0; 1; 0.89" keyTimes="0; 0.146; 0.374; 0.65; 0.919; 1" keySplines="0.333 0 0.667 1; 0.333 0 0.667 1; 0.333 0 0.667 1; 0.333 0 0.667 1; 0.333 0 0.667 1" fill="freeze" /><g id="Group 4" transform="translate(72.75,68.75)"><path fill="#B5924C" fill-opacity="1" d="M0,-2.5C1.381,-2.5,2.5,-1.381,2.5,0C2.5,1.381,1.381,2.5,0,2.5C-1.381,2.5,-2.5,1.381,-2.5,0C-2.5,-1.381,-1.381,-2.5,0,-2.5Z" /></g></g><g opacity="1"><animate repeatCount="indefinite" attributeName="opacity" dur="4.9s" begin="0.17893333333333333s" calcMode="spline" values="1; 0; 1; 0; 1; 0" keyTimes="0; 0.122; 0.313; 0.544; 0.769; 1" keySplines="0.333 0 0.667 1; 0.333 0 0.667 1; 0.333 0 0.667 1; 0.333 0 0.667 1; 0.333 0 0.667 1" fill="freeze" /><g id="Group 3" transform="translate(101.75,2.75)"><path fill="#B5924C" fill-opacity="1" d="M0,-2.5C1.381,-2.5,2.5,-1.381,2.5,0C2.5,1.381,1.381,2.5,0,2.5C-1.381,2.5,-2.5,1.381,-2.5,0C-2.5,-1.381,-1.381,-2.5,0,-2.5Z" /></g></g><g opacity="1"><animate repeatCount="indefinite" attributeName="opacity" dur="4.5s" begin="0.3122666666666667s" calcMode="spline" values="1; 0; 1; 0; 1; 0" keyTimes="0; 0.133; 0.341; 0.593; 0.837; 1" keySplines="0.333 0 0.667 1; 0.333 0 0.667 1; 0.333 0 0.667 1; 0.333 0 0.667 1; 0.333 0 0.667 1" fill="freeze" /><g id="Group 2" transform="translate(55.75,143.75)"><path fill="#B5924C" fill-opacity="1" d="M0,-2.5C1.381,-2.5,2.5,-1.381,2.5,0C2.5,1.381,1.381,2.5,0,2.5C-1.381,2.5,-2.5,1.381,-2.5,0C-2.5,-1.381,-1.381,-2.5,0,-2.5Z" /></g></g><g opacity="1"><animate repeatCount="indefinite" attributeName="opacity" dur="4.966666666666667s" begin="0.012266666666666667s" calcMode="spline" values="1; 0; 1; 0; 1; 0" keyTimes="0; 0.121; 0.309; 0.537; 0.758; 1" keySplines="0.333 0 0.667 1; 0.333 0 0.667 1; 0.333 0 0.667 1; 0.333 0 0.667 1; 0.333 0 0.667 1" fill="freeze" /><g id="Group 1" transform="translate(331.25,270.25)"><path fill="#B5924C" fill-opacity="1" d="M0,-2C1.104,-2,2,-1.104,2,0C2,1.104,1.104,2,0,2C-1.104,2,-2,1.104,-2,0C-2,-1.104,-1.104,-2,0,-2Z" /></g></g></g><g transform="matrix(1,0,0,1,200,200)" opacity="0.75" id="waves_33"><g><g transform="translate(2.141,0.523)"><g id="Shape_1" transform="rotate(0)"><animateTransform repeatCount="indefinite" type="rotate" attributeName="transform" dur="5s" begin="0.012s" calcMode="spline" values="0; 360" keyTimes="0; 1" keySplines="0 0 1 1" fill="freeze" /><path fill="#B5924C" fill-opacity="0.11" d="M-169.06099995455102,25.951571396107873C-163.115,129.953,-14.475,218.24,60.99,177.057C128.991,139.948,154.993,93.954,170.479,35.953C185.965,-22.049,125.83,-148.743,52.991,-160.249C-47.008,-176.047,-175.007,-78.048,-169.061,25.952Z" /></g></g></g></g><g transform="matrix(0.906,-0.423,0.423,0.906,200,200)" opacity="0.75" id="wave_4"><g id="Group 1"><path d="" /></g><g><g transform="translate(2.141,0.523)"><g id="Shape 1" transform="rotate(0)"><animateTransform repeatCount="indefinite" type="rotate" attributeName="transform" dur="5s" begin="0.012s" calcMode="spline" values="0; -360" keyTimes="0; 1" keySplines="0 0 1 1" fill="freeze" /><path stroke-linejoin="miter" stroke-linecap="butt" stroke-width="3" stroke-opacity="0.25" stroke="#B5924C" d="M-169.06099995455102,25.951571396107873C-163.115,129.953,-14.475,218.24,60.99,177.057C128.991,139.948,154.993,93.954,170.479,35.953C185.965,-22.049,125.83,-148.743,52.991,-160.249C-47.008,-176.047,-175.007,-78.048,-169.061,25.952Z" /></g></g></g></g><g transform="matrix(1,0,0,1,200,200)" opacity="0.75" id="waves__9"><g><g transform="translate(2.141,0.523)"><g id="Shape_6" transform="rotate(0)"><animateTransform repeatCount="indefinite" type="rotate" attributeName="transform" dur="5s" begin="0.012s" calcMode="spline" values="0; -360" keyTimes="0; 1" keySplines="0 0 1 1" fill="freeze" /><path fill="#B5924C" fill-opacity="0.11" d="M-181.063,-12.047C-180.084,66.483,-0.473,230.243,74.992,189.061C142.992,151.953,169.86,63.476,156.479,-8.047C143.098,-79.57,69.859,-164.523,-15.008,-168.25C-99.875,-171.977,-182.141,-98.523,-181.063,-12.047Z" /></g></g></g></g><g transform="matrix(0.906,-0.423,0.423,0.906,200,200)" opacity="0.75" id="waves_8"><g><g transform="translate(2.141,0.523)"><g id="Shape_55" transform="rotate(0)"><animateTransform repeatCount="indefinite" type="rotate" attributeName="transform" dur="5s" begin="0.012s" calcMode="spline" values="0; -360" keyTimes="0; 1" keySplines="0 0 1 1" fill="freeze" /><path stroke-linejoin="miter" stroke-linecap="butt" stroke-width="3" stroke-opacity="0.25" stroke="#B5924C" d="M-169.06099995455102,25.951571396107873C-163.115,129.953,-14.475,218.24,60.99,177.057C128.991,139.948,154.993,93.954,170.479,35.953C185.965,-22.049,125.83,-148.743,52.991,-160.249C-47.008,-176.047,-175.007,-78.048,-169.061,25.952Z" /></g></g></g></g><g transform="matrix(0.906,0.423,-0.423,0.906,200,200)" id="waves_6"><g><g transform="translate(2.141,0.523)"><g id="Shape_5" transform="rotate(0)"><animateTransform repeatCount="indefinite" type="rotate" attributeName="transform" dur="5s" begin="0.012s" calcMode="spline" values="0; 360" keyTimes="0; 1" keySplines="0 0 1 1" fill="freeze" /><path stroke-linejoin="round" stroke-linecap="round" stroke-width="3" stroke-opacity="0.25" stroke="#B5924C" d="M-181.063,-12.047C-180.084,66.483,-0.473,230.243,74.992,189.061C142.992,151.953,169.86,63.476,156.479,-8.047C143.098,-79.57,69.859,-164.523,-15.008,-168.25C-99.875,-171.977,-182.141,-98.523,-181.063,-12.047Z" /></g></g></g></g></svg>